<svg width="200" height="158" viewBox="0 0 200 158" fill="none" xmlns="http://www.w3.org/2000/svg">
<path fill-rule="evenodd" clip-rule="evenodd" d="M64.2857 0.428589C57.2143 0.428589 51.6714 4.72859 48.2429 9.88573C44.7714 15.0857 42.8571 21.8714 42.8571 29C42.8571 36.1286 44.7714 42.9143 48.2429 48.1143C51.6714 53.2572 57.2143 57.5714 64.2857 57.5714C71.3571 57.5714 76.9 53.2714 80.3286 48.1143C83.8 42.9143 85.7143 36.1286 85.7143 29C85.7143 21.8714 83.8 15.0857 80.3286 9.88573C76.9 4.74287 71.3571 0.428589 64.2857 0.428589ZM135.714 0.428589C128.643 0.428589 123.1 4.72859 119.671 9.88573C116.2 15.0857 114.286 21.8714 114.286 29C114.286 36.1286 116.2 42.9143 119.671 48.1143C123.1 53.2572 128.643 57.5714 135.714 57.5714C142.786 57.5714 148.329 53.2714 151.757 48.1143C155.229 42.9143 157.143 36.1286 157.143 29C157.143 21.8714 155.229 15.0857 151.757 9.88573C148.329 4.74287 142.786 0.428589 135.714 0.428589ZM21.4286 64.7143C14.3571 64.7143 8.81429 69.0143 5.38571 74.1714C1.91429 79.3714 0 86.1572 0 93.2857C0 100.414 1.91429 107.2 5.38571 112.4C8.81429 117.543 14.3571 121.857 21.4286 121.857C28.5 121.857 34.0429 117.557 37.4714 112.4C40.9429 107.2 42.8571 100.414 42.8571 93.2857C42.8571 86.1572 40.9429 79.3714 37.4714 74.1714C34.0429 69.0286 28.5 64.7143 21.4286 64.7143ZM100 64.7143C82.8571 64.7143 70.1571 73.9143 62.0429 85.3286C54.0286 96.5714 50 110.529 50 121.857C50 135.057 57.9286 144.229 67.6571 149.743C77.2286 155.171 89.2286 157.571 100 157.571C110.771 157.571 122.771 155.186 132.343 149.743C142.057 144.229 150 135.057 150 121.857C150 110.529 145.971 96.5714 137.957 85.3286C129.857 73.9 117.157 64.7143 100 64.7143ZM178.571 64.7143C171.5 64.7143 165.957 69.0143 162.529 74.1714C159.057 79.3714 157.143 86.1572 157.143 93.2857C157.143 100.414 159.057 107.2 162.529 112.4C165.957 117.543 171.5 121.857 178.571 121.857C185.643 121.857 191.186 117.557 194.614 112.4C198.086 107.2 200 100.414 200 93.2857C200 86.1572 198.086 79.3714 194.614 74.1714C191.186 69.0286 185.643 64.7143 178.571 64.7143Z" fill="#4749DE"/>
</svg>
